<svg width="44" height="44" viewBox="0 0 11.642 11.642" xmlns="http://www.w3.org/2000/svg"><g transform="translate(.189 .678)"><ellipse cx="6.651" cy="4.826" transform="rotate(11.95)" rx="1.615" ry="1.616" fill="#00897b"/><path d="M3.797 9.9C-.59 10.867-.284 8.276 1.01 5.453c.114-.206.389-.214.548-.068a.327.327 0 01.148.343c0 .01-.268 1.299-.268 1.299l3.027-.987a.4.4 0 11.249.762l-1.78.58.046.113.009-.002a.4.4 0 11.248.763l-.009.002.02.062.019-.006a.4.4 0 11.248.762l-.018.006.021.064.03-.01a.4.4 0 11.248.763zM9.712 5.742c3.21 3.644.603 4.518-2.64 4.535-.235-.005-.37-.244-.315-.453a.326.326 0 01.234-.29c.01-.006 1.275-.368 1.275-.368l-2.282-2.22a.4.4 0 11.56-.575l1.34 1.305.08-.092-.007-.008a.4.4 0 11.56-.574l.006.007.045-.047-.014-.013a.4.4 0 11.56-.575l.014.013.047-.048-.023-.022a.4.4 0 11.56-.575zM3.084 2.746C4.48-1.932 6.555-.22 8.33 2.556c.121.202-.01.444-.215.508a.327.327 0 01-.37-.043c-.011-.005-.992-.882-.992-.882l-.66 3.116a.4.4 0 11-.784-.166l.388-1.831-.12-.017-.003.009a.4.4 0 11-.785-.166l.003-.01-.064-.013-.004.019a.4.4 0 11-.785-.166l.004-.019-.066-.014-.006.031a.4.4 0 11-.785-.166z" fill="#fbffff" stroke="#000" stroke-width=".397" stroke-linecap="round" stroke-linejoin="round"/></g></svg>